FFmpeg version SVN-r25716, Copyright (c) 2000-2010 the FFmpeg developers  built on Nov 10 2010 12:23:18 with gcc 4.1.2 20080704 (Red Hat 4.1.2-48)  configuration: --enable-libmp3lame --enable-shared --disable-mmx --arch=x86_64  libavutil     50.33. 0 / 50.33. 0  libavcore      0.12. 1 /  0.12. 1  libavcodec    52.94. 4 / 52.94. 4  libavformat   52.84. 0 / 52.84. 0  libavdevice   52. 2. 2 / 52. 2. 2  libavfilter    1.59. 0 /  1.59. 0  libswscale     0.12. 0 /  0.12. 0Seems stream 0 codec frame rate differs from container frame rate: 1000.00 (1000/1) -> 10.00 (10/1)Input #0, mov,mp4,m4a,3gp,3g2,mj2, from '/RAID10/data/converted_video_files/25778.mov':  Metadata:    major_brand     : qt      minor_version   : 537199360    compatible_brands: qt    Duration: 00:00:05.70, start: 0.000000, bitrate: 4081 kb/s    Stream #0.0(eng): Video: mpeg4, yuv420p, 813x695 [PAR 1:1 DAR 813:695], 4079 kb/s, 10 fps, 10 tbr, 600 tbn, 1k tbc[buffer @ 0x1e3752f0] w:813 h:695 pixfmt:yuv420pOutput #0, flv, to '/RAID10/data/converted_video_files/25778.flv':  Metadata:    encoder         : Lavf52.84.0    Stream #0.0(eng): Video: flv, yuv420p, 813x695 [PAR 1:1 DAR 813:695], q=2-31, 600 kb/s, 1k tbn, 24 tbcStream mapping:  Stream #0.0 -> #0.0Press [q] to stop encodingframe=   22 fps=  0 q=31.0 size=     919kB time=2.12 bitrate=3541.3kbits/s    frame=   46 fps= 44 q=31.0 size=    1025kB time=4.54 bitrate=1849.2kbits/s    frame=   57 fps= 45 q=31.0 Lsize=    1081kB time=5.62 bitrate=1573.6kbits/s    video:1079kB audio:0kB global headers:0kB muxing overhead 0.101509%